<?xml version="1.0"?>
<svg width="28" height="28" xmlns="http://www.w3.org/2000/svg" xmlns:svg="http://www.w3.org/2000/svg">
 <g class="layer">
  <title>Layer 1</title>
  <path d="m15.21,13l-2.82,0l0,-2.88l2.82,0c0.78,0 1.42,0.65 1.42,1.44c0,0.79 -0.64,1.44 -1.42,1.44zm0.69,2l-0.69,0l-2.82,0l0,2.88l3.51,0c0.78,0 1.41,-0.65 1.41,-1.44c0,-0.79 -0.63,-1.44 -1.41,-1.44zm11.43,-1c0,7.36 -5.97,13.33 -13.33,13.33c-7.36,0 -13.33,-5.97 -13.33,-13.33c0,-7.36 5.97,-13.33 13.33,-13.33c7.36,0 13.33,5.97 13.33,13.33zm-8.02,2.44c0,-1.15 -0.56,-2.15 -1.42,-2.78c0.46,-0.58 0.73,-1.31 0.73,-2.1c0,-1.67 -1.18,-3.06 -2.74,-3.37l0,-0.86c0,-0.55 -0.45,-1 -1,-1c-0.55,0 -1,0.45 -1,1l0,0.79l-0.79,0l0,-0.79c0,-0.55 -0.45,-1 -1,-1c-0.55,0 -1,0.45 -1,1l0,0.79l-1.4,0c-0.56,0 -1,0.45 -1,1c0,0.55 0.44,1 1,1l0.7,0l0,7.76l-0.7,0c-0.56,0 -1,0.45 -1,1c0,0.55 0.44,1 1,1l1.4,0l0,0.79c0,0.55 0.45,1 1,1c0.55,0 1,-0.45 1,-1l0,-0.79l0.79,0l0,0.79c0,0.55 0.45,1 1,1c0.55,0 1,-0.45 1,-1l0,-0.79l0.02,0c1.88,0 3.41,-1.54 3.41,-3.44z" fill="#787878" id="svg_1"/>
 </g>
</svg>