<?xml version="1.0"?>
<svg width="27" height="28" xmlns="http://www.w3.org/2000/svg" xmlns:svg="http://www.w3.org/2000/svg">
 <g class="layer">
  <title>Layer 1</title>
  <path d="m13.33,0.67c-7.36,0 -13.33,5.97 -13.33,13.33c0,7.36 5.97,13.33 13.33,13.33c7.37,0 13.34,-5.97 13.34,-13.33c0,-7.36 -5.97,-13.33 -13.34,-13.33zm6.7,13.11c-0.19,0 -0.36,-0.04 -0.54,-0.08l-1.99,1.99c0.05,0.17 0.08,0.35 0.08,0.53c0,1.11 -0.89,2 -2,2c-1.1,0 -2.01,-0.89 -2.01,-2c0,-0.17 0.03,-0.34 0.07,-0.5l-2.01,-2.01c-0.16,0.04 -0.32,0.07 -0.49,0.07c-0.19,0 -0.36,-0.04 -0.53,-0.08l-2,1.99c0.05,0.17 0.08,0.35 0.08,0.53c0,1.11 -0.89,2 -2,2c-1.1,0 -2,-0.89 -2,-2c0,-1.1 0.88,-2 1.99,-2l0.01,0c0.17,0 0.34,0.03 0.49,0.07l2.02,-2.02c-0.04,-0.16 -0.07,-0.32 -0.07,-0.49c0,-1.11 0.89,-2 1.99,-2l0.02,0c1.1,0 2,0.89 2,2c0,0.18 -0.04,0.36 -0.08,0.53l1.99,1.99c0.16,-0.05 0.34,-0.08 0.52,-0.08l0.01,0c0.17,0 0.33,0.03 0.49,0.07l2.02,-2.02c-0.04,-0.16 -0.07,-0.32 -0.07,-0.49c0,-1.11 0.89,-2 1.99,-2l0.02,0c1.1,0 2,0.89 2,2c0,1.1 -0.9,2 -2,2z" fill="#787878" id="svg_1"/>
 </g>
</svg>