<?xml version="1.0"?>
<svg width="27" height="28" xmlns="http://www.w3.org/2000/svg" xmlns:svg="http://www.w3.org/2000/svg">
 <g class="layer">
  <title>Layer 1</title>
  <path d="m13.67,0.67c-7.37,0 -13.34,5.97 -13.34,13.33c0,7.36 5.97,13.33 13.34,13.33c7.36,0 13.33,-5.97 13.33,-13.33c0,-7.36 -5.97,-13.33 -13.33,-13.33zm0.02,20.66c-0.73,0 -1.34,-0.59 -1.34,-1.33c0,-0.74 0.59,-1.33 1.33,-1.33l0.01,0c0.74,0 1.34,0.59 1.34,1.33c0,0.74 -0.6,1.33 -1.34,1.33zm2.11,-6.63c-0.97,0.66 -1.15,1.02 -1.19,1.12c-0.14,0.41 -0.52,0.68 -0.94,0.68c-0.11,0 -0.22,-0.02 -0.32,-0.05c-0.52,-0.18 -0.81,-0.75 -0.63,-1.27c0.24,-0.72 0.87,-1.4 1.97,-2.14c1.36,-0.91 1.19,-1.91 1.13,-2.24c-0.15,-0.87 -0.89,-1.61 -1.75,-1.77c-0.66,-0.12 -1.3,0.06 -1.8,0.48c-0.5,0.42 -0.79,1.04 -0.79,1.7c0,0.56 -0.45,1 -1,1c-0.55,0 -1,-0.44 -1,-1c0,-1.25 0.55,-2.43 1.51,-3.24c0.95,-0.79 2.2,-1.12 3.43,-0.9c1.69,0.3 3.07,1.69 3.37,3.39c0.29,1.68 -0.41,3.19 -1.99,4.24z" fill="#787878" id="svg_1"/>
 </g>
</svg>